<svg xmlns="http://www.w3.org/2000/svg" version="1.1" xmlns:xlink="http://www.w3.org/1999/xlink" xmlns:svgjs="http://svgjs.dev/svgjs" width="1500" height="935" viewBox="0 0 1500 935"><g transform="matrix(1,0,0,1,-0.9090909090909918,0.3785425101214628)"><svg viewBox="0 0 396 247" data-background-color="transparent" preserveAspectRatio="xMidYMid meet" height="935" width="1500" xmlns="http://www.w3.org/2000/svg" xmlns:xlink="http://www.w3.org/1999/xlink"><g id="tight-bounds" transform="matrix(1,0,0,1,0.2400000000000091,-0.09999999999999432)"><svg viewBox="0 0 395.52 247.2" height="247.2" width="395.52"><g><svg></svg></g><g><svg viewBox="0 0 395.52 247.2" height="247.2" width="395.52"><g transform="matrix(1,0,0,1,75.54432,49.599989903072526)"><svg viewBox="0 0 244.43135999999998 148.00002019385494" height="148.00002019385494" width="244.43135999999998"><g><svg viewBox="0 0 244.43135999999998 148.00002019385494" height="148.00002019385494" width="244.43135999999998"><g><svg viewBox="0 0 244.43135999999998 148.00002019385494" height="148.00002019385494" width="244.43135999999998"><g><svg viewBox="0 0 244.43135999999998 148.00002019385494" height="148.00002019385494" width="244.43135999999998"><g id="textblocktransform"><svg viewBox="0 0 244.43135999999998 148.00002019385494" height="148.00002019385494" width="244.43135999999998" id="textblock"><g><svg viewBox="0 0 244.43135999999998 87.77778711864407" height="87.77778711864407" width="244.43135999999998"><g transform="matrix(1,0,0,1,0,0)"><svg width="244.43135999999998" viewBox="4.15 -33.3 94.39999999999999 33.9" height="87.77778711864407" data-palette-color="#ffffff"><path d="M9.4 0L4.15 0 4.15-32.7 10.7-32.7 16.5-16.7Q17.05-15.15 17.55-13.53 18.05-11.9 18.6-10.3L18.6-10.3 18.8-10.3Q19.35-11.9 19.83-13.53 20.3-15.15 20.85-16.7L20.85-16.7 26.5-32.7 33.1-32.7 33.1 0 27.75 0 27.75-14.95Q27.75-16.1 27.83-17.45 27.9-18.8 28-20.18 28.1-21.55 28.25-22.88 28.4-24.2 28.5-25.35L28.5-25.35 28.3-25.35 25.65-17.75 20.3-3.05 16.85-3.05 11.45-17.75 8.85-25.35 8.65-25.35Q8.75-24.2 8.88-22.88 9-21.55 9.13-20.18 9.25-18.8 9.33-17.45 9.4-16.1 9.4-14.95L9.4-14.95 9.4 0ZM55.1 0.6L55.1 0.6Q51.8 0.6 48.97-0.5 46.15-1.6 44.07-3.75 42-5.9 40.85-9.05 39.7-12.2 39.7-16.25L39.7-16.25Q39.7-20.25 40.9-23.43 42.1-26.6 44.17-28.8 46.25-31 49.07-32.15 51.9-33.3 55.15-33.3L55.15-33.3Q58.65-33.3 61.07-32.02 63.5-30.75 65.05-29.15L65.05-29.15 61.95-25.4Q60.7-26.6 59.17-27.43 57.65-28.25 55.35-28.25L55.35-28.25Q53.15-28.25 51.37-27.43 49.6-26.6 48.32-25.08 47.05-23.55 46.35-21.35 45.65-19.15 45.65-16.4L45.65-16.4Q45.65-10.8 48.17-7.63 50.7-4.45 55.65-4.45L55.65-4.45Q57.05-4.45 58.3-4.83 59.55-5.2 60.35-5.9L60.35-5.9 60.35-12.95 54.15-12.95 54.15-17.7 65.55-17.7 65.55-3.3Q63.9-1.65 61.17-0.53 58.45 0.6 55.1 0.6ZM78.6 0L72.8 0 72.8-32.7 78.6-32.7 78.6-17.85 78.75-17.85 90.4-32.7 96.85-32.7 86.8-19.95 98.55 0 92.15 0 83.3-15.4 78.6-9.55 78.6 0Z" opacity="1" transform="matrix(1,0,0,1,0,0)" fill="#ffffff" class="wordmark-text-0" data-fill-palette-color="primary" id="text-0"></path></svg></g></svg></g><g transform="matrix(1,0,0,1,0,108.50001599046509)"><svg viewBox="0 0 244.43135999999998 39.500004203389835" height="39.500004203389835" width="244.43135999999998"><g transform="matrix(1,0,0,1,0,0)"><svg width="244.43135999999998" viewBox="3.05 -37.99 238.1 38.480000000000004" height="39.500004203389835" data-palette-color="#0074d9"><path d="M20.19-32.5L20.19-32.5Q14.31-32.5 10.9-28.58 7.5-24.66 7.5-17.85L7.5-17.85Q7.5-10.84 10.78-7.02 14.06-3.2 20.14-3.2L20.14-3.2Q23.88-3.2 28.66-4.54L28.66-4.54 28.66-0.9Q24.95 0.49 19.51 0.49L19.51 0.49Q11.62 0.49 7.34-4.3 3.05-9.08 3.05-17.9L3.05-17.9Q3.05-23.41 5.11-27.56 7.18-31.71 11.07-33.96 14.97-36.21 20.24-36.21L20.24-36.21Q25.85-36.21 30.05-34.16L30.05-34.16 28.3-30.59Q24.24-32.5 20.19-32.5ZM83.72-13.4L83.72-13.4Q83.72-6.86 80.43-3.19 77.13 0.49 71.32 0.49L71.32 0.49Q67.73 0.49 64.95-1.2 62.17-2.88 60.65-6.03 59.14-9.18 59.14-13.4L59.14-13.4Q59.14-19.95 62.41-23.6 65.68-27.25 71.49-27.25L71.49-27.25Q77.11-27.25 80.42-23.51 83.72-19.78 83.72-13.4ZM63.34-13.4L63.34-13.4Q63.34-8.28 65.39-5.59 67.44-2.91 71.42-2.91L71.42-2.91Q75.4-2.91 77.46-5.58 79.53-8.25 79.53-13.4L79.53-13.4Q79.53-18.51 77.46-21.15 75.4-23.8 71.37-23.8L71.37-23.8Q67.39-23.8 65.37-21.19 63.34-18.58 63.34-13.4ZM134.37 0L133.83-3.59 133.61-3.59Q130.8 0.49 125.21 0.49L125.21 0.49Q119.96 0.49 117.05-3.1 114.13-6.69 114.13-13.31L114.13-13.31Q114.13-19.92 117.06-23.58 119.99-27.25 125.21-27.25L125.21-27.25Q130.66-27.25 133.56-23.29L133.56-23.29 133.88-23.29 133.71-25.22 133.61-27.1 133.61-37.99 137.66-37.99 137.66 0 134.37 0ZM125.73-2.91L125.73-2.91Q129.88-2.91 131.74-5.16 133.61-7.42 133.61-12.45L133.61-12.45 133.61-13.31Q133.61-18.99 131.72-21.42 129.83-23.85 125.68-23.85L125.68-23.85Q122.11-23.85 120.22-21.08 118.33-18.31 118.33-13.26L118.33-13.26Q118.33-8.13 120.21-5.52 122.09-2.91 125.73-2.91ZM182.35 0.49L182.35 0.49Q176.42 0.49 172.99-3.13 169.56-6.74 169.56-13.16L169.56-13.16Q169.56-19.63 172.74-23.44 175.93-27.25 181.3-27.25L181.3-27.25Q186.33-27.25 189.26-23.94 192.19-20.63 192.19-15.21L192.19-15.21 192.19-12.65 173.76-12.65Q173.88-7.93 176.14-5.49 178.4-3.05 182.5-3.05L182.5-3.05Q186.82-3.05 191.04-4.86L191.04-4.86 191.04-1.25Q188.89-0.32 186.98 0.09 185.06 0.49 182.35 0.49ZM181.25-23.85L181.25-23.85Q178.03-23.85 176.11-21.75 174.2-19.65 173.86-15.94L173.86-15.94 187.84-15.94Q187.84-19.78 186.14-21.81 184.43-23.85 181.25-23.85ZM241.15-7.3L241.15-7.3Q241.15-3.56 238.37-1.54 235.58 0.49 230.55 0.49L230.55 0.49Q225.23 0.49 222.25-1.2L222.25-1.2 222.25-4.96Q224.18-3.98 226.39-3.42 228.6-2.86 230.65-2.86L230.65-2.86Q233.83-2.86 235.53-3.87 237.24-4.88 237.24-6.96L237.24-6.96Q237.24-8.52 235.89-9.63 234.53-10.74 230.6-12.26L230.6-12.26Q226.87-13.65 225.29-14.69 223.72-15.72 222.95-17.04 222.18-18.36 222.18-20.19L222.18-20.19Q222.18-23.46 224.84-25.35 227.5-27.25 232.14-27.25L232.14-27.25Q236.46-27.25 240.59-25.49L240.59-25.49 239.15-22.19Q235.12-23.85 231.85-23.85L231.85-23.85Q228.97-23.85 227.5-22.95 226.04-22.05 226.04-20.46L226.04-20.46Q226.04-19.38 226.59-18.63 227.14-17.87 228.36-17.19 229.58-16.5 233.04-15.21L233.04-15.21Q237.81-13.48 239.48-11.72 241.15-9.96 241.15-7.3Z" opacity="1" transform="matrix(1,0,0,1,0,0)" fill="#0074d9" class="slogan-text-1" data-fill-palette-color="secondary" id="text-1"></path></svg></g></svg></g></svg></g></svg></g></svg></g></svg></g></svg></g><path d="M143.842 43.6L143.842 0 391.042 0 391.042 247.2 143.842 247.2 143.842 203.6 151.758 203.6 151.758 239.284 383.126 239.284 383.126 7.916 151.758 7.916 151.758 43.6Z" fill="#ffffff" stroke="transparent" data-fill-palette-color="primary"></path></svg></g><defs></defs></svg><rect width="395.52" height="247.2" fill="none" stroke="none" visibility="hidden"></rect></g></svg></g></svg>
